<svg width="298" height="594" viewBox="0 0 298 594" fill="none" xmlns="http://www.w3.org/2000/svg">
<path fill-rule="evenodd" clip-rule="evenodd" d="M294.715 593.903C295.487 593.903 296.228 593.596 296.774 593.05C297.32 592.504 297.627 591.764 297.627 590.991V402.983C297.627 402.21 297.32 401.47 296.774 400.924C296.228 400.378 295.487 400.071 294.715 400.071H31.5038C30.7315 400.071 29.9908 400.378 29.4447 400.924C28.8986 401.47 28.5918 402.21 28.5918 402.983V590.991C28.5918 591.764 28.8986 592.504 29.4447 593.05C29.9908 593.596 30.7315 593.903 31.5038 593.903H294.715Z" fill="#C4C4C4"/>
<g clip-path="url(#clip0_2411_4605)">
<path fill-rule="evenodd" clip-rule="evenodd" d="M173.988 556.744C173.988 546.923 170.086 537.504 163.141 530.559C156.196 523.614 146.776 519.712 136.955 519.712H37.0329C27.2112 519.712 17.7917 523.614 10.8467 530.559C3.90167 537.504 0 546.923 0 556.744H0C0 566.566 3.90167 575.985 10.8467 582.929C17.7917 589.874 27.2112 593.776 37.0329 593.776H136.955C146.776 593.776 156.196 589.874 163.141 582.929C170.086 575.985 173.988 566.566 173.988 556.744Z" fill="#8A9097"/>
</g>
<g clip-path="url(#clip1_2411_4605)">
<path fill-rule="evenodd" clip-rule="evenodd" d="M134.193 591.321C133.481 592.092 132.617 592.708 131.656 593.128C130.694 593.549 129.656 593.767 128.606 593.767H99.2493C97.8667 593.768 96.5099 593.393 95.3246 592.681C94.1394 591.969 93.1704 590.948 92.5219 589.727C91.8734 588.506 91.5698 587.131 91.6437 585.75C91.7176 584.37 92.1663 583.035 92.9415 581.891L97.4942 575.143C101.999 568.474 104.405 560.609 104.405 552.561V548.743H133.054C133.054 548.743 133.08 547.951 133.124 546.579C133.691 553.784 135.284 574.07 136.203 585.555C136.284 586.603 136.148 587.656 135.802 588.648C135.456 589.641 134.908 590.551 134.193 591.321Z" fill="white"/>
<path fill-rule="evenodd" clip-rule="evenodd" d="M260.613 589.003C260.047 590.407 259.075 591.611 257.821 592.46C256.567 593.308 255.089 593.763 253.575 593.767H218.301C217.249 593.767 216.207 593.548 215.244 593.125C214.28 592.702 213.414 592.084 212.702 591.309C211.99 590.534 211.446 589.62 211.105 588.624C210.764 587.628 210.634 586.573 210.722 585.524C211.439 576.973 212.561 563.579 213.335 554.32H242.525C242.994 561.627 246.177 568.493 251.45 573.573L258.835 580.677C259.928 581.729 260.681 583.084 260.998 584.568C261.314 586.052 261.18 587.596 260.613 589.003Z" fill="white"/>
<path d="M117.688 0.679199H33.4307V84.9341H117.688V0.679199Z" fill="#2E9E73"/>
<path fill-rule="evenodd" clip-rule="evenodd" d="M88.9294 113.397C88.9294 113.397 89.8883 126.989 91.0408 143.4C90.1039 131.084 88.7887 113.767 88.164 105.537C88.0607 104.165 87.5311 102.86 86.6493 101.804C85.7676 100.748 84.5777 99.9939 83.2463 99.6475L44.2867 89.5747C43.8594 89.4626 43.4713 89.235 43.1648 88.9169C42.8583 88.5988 42.6453 88.2024 42.5492 87.7713C42.5492 87.7185 42.5272 87.6613 42.514 87.6086C42.4402 87.2589 42.4449 86.8972 42.5278 86.5496C42.6107 86.202 42.7698 85.8771 42.9934 85.5984C43.218 85.3167 43.503 85.0891 43.8273 84.9322C44.1516 84.7754 44.507 84.6934 44.8673 84.6923L79.0631 84.8462C79.4439 84.8426 79.8128 84.713 80.1123 84.4776C80.4117 84.2422 80.6248 83.9143 80.7182 83.5451C80.8116 83.1759 80.7802 82.7861 80.6288 82.4366C80.4774 82.0871 80.2145 81.7976 79.8812 81.6133L65.8932 74.1357C65.4677 73.9054 65.0976 73.5849 64.8089 73.1967C64.5202 72.8084 64.3198 72.3618 64.2217 71.888C64.1778 71.6679 64.1557 71.4439 64.1557 71.2194C64.1559 70.4652 64.4117 69.7333 64.8815 69.1433C65.2259 68.7138 65.6837 68.3893 66.203 68.2066C66.7223 68.0239 67.2824 67.9903 67.8199 68.1096L90.0027 73.0404C92.7203 73.6419 95.2058 75.0167 97.1594 76.9992L101.558 81.4901C106.239 86.2424 109.159 92.4487 109.837 99.0845C110.246 103.078 110.716 107.882 111.244 112.909L88.9294 113.397Z" fill="#D89071"/>
<path fill-rule="evenodd" clip-rule="evenodd" d="M284.449 457.631L242.529 554.32H213.291C213.291 554.32 213.291 554.012 213.291 553.441C213.836 519.435 222.181 486.008 237.682 455.735C239.033 453.099 239.511 450.102 239.048 447.177C238.585 444.252 237.204 441.549 235.104 439.46L205.465 409.902C203.371 407.818 200.537 406.647 197.583 406.647H190.422C186.373 406.647 182.341 407.152 178.418 408.151L127.564 421.109C125.696 421.587 123.94 422.428 122.398 423.585C120.856 424.742 119.557 426.192 118.577 427.852C117.596 429.511 116.952 431.349 116.683 433.258C116.414 435.166 116.524 437.11 117.007 438.976L127.617 479.971C132.148 497.483 134.148 515.554 133.555 533.634C133.375 539.049 133.216 543.887 133.115 546.552C133.071 547.925 133.045 548.717 133.045 548.717H104.356C104.356 548.717 79.1777 473.967 64.6223 430.861C61.8081 422.512 62.0178 413.44 65.2147 405.23C68.4117 397.02 74.3925 390.194 82.1117 385.947L129.878 359.648C133.616 357.59 136.733 354.566 138.904 350.893C141.075 347.219 142.22 343.03 142.22 338.763V331.207C142.22 331.325 142.22 331.387 142.22 331.387L248.969 348.282H249.154C249.27 351.643 250.098 354.941 251.582 357.959L283.604 423.089C286.238 428.442 287.677 434.303 287.823 440.267C287.969 446.231 286.817 452.155 284.449 457.631Z" fill="#7876C8"/>
<path fill-rule="evenodd" clip-rule="evenodd" d="M277.037 302.422L265.376 284.876C260.564 277.626 256.525 269.89 253.328 261.797L245.991 243.213C244.347 239.055 241.699 235.368 238.283 232.482C234.868 229.597 230.791 227.601 226.416 226.674L212.046 223.639C211.817 224.022 196.91 248.531 189.573 248.531C182.236 248.531 167.667 223.635 167.667 223.635C167.667 223.635 141.921 194.745 133.652 182.728C125.382 170.711 111.412 112.905 111.412 112.905H111.266L88.9473 113.393C88.9473 113.393 89.9062 126.985 91.0587 143.396C91.0608 143.434 91.0608 143.472 91.0587 143.51C92.0748 157.959 93.258 174.577 94.0542 186.005C94.6961 195.103 97.7195 203.872 102.821 211.433L129.442 250.88C133.507 256.902 135.988 263.852 136.656 271.087C138.442 290.322 141.934 328.268 142.229 331.202C142.229 331.321 142.229 331.383 142.229 331.383L248.969 348.282H249.154L255.778 347.587C260.772 347.068 265.548 345.269 269.642 342.364C273.737 339.458 277.012 335.545 279.15 331.002C281.288 326.459 282.217 321.442 281.847 316.435C281.477 311.428 279.82 306.601 277.037 302.422ZM264.241 332.64C261.503 335.01 258 336.309 254.379 336.298C250.757 336.287 247.263 334.966 244.539 332.579L227.01 317.241L218.67 309.944C215.738 307.375 212.164 305.65 208.329 304.951L164.478 296.964C163.821 296.843 163.228 296.497 162.8 295.984C162.372 295.471 162.138 294.825 162.138 294.157C162.137 293.772 162.213 293.39 162.36 293.034C162.507 292.678 162.723 292.354 162.996 292.081C163.268 291.809 163.592 291.593 163.948 291.446C164.305 291.298 164.686 291.223 165.072 291.223H165.538C161.101 290.145 157.213 287.479 154.61 283.728C152.006 279.977 150.868 275.402 151.41 270.869C151.951 266.335 154.136 262.157 157.55 259.125C160.964 256.094 165.371 254.418 169.937 254.416H211.324C215.016 254.417 218.625 255.512 221.694 257.564C224.764 259.615 227.156 262.531 228.568 265.942C229.981 269.353 230.35 273.106 229.63 276.727C228.909 280.347 227.131 283.673 224.521 286.284C223.856 286.949 223.141 287.562 222.383 288.118L228.418 291.905C229.399 292.517 230.402 293.088 231.431 293.612L261.342 308.853C263.451 309.928 265.263 311.505 266.619 313.445C267.975 315.385 268.833 317.629 269.118 319.979C269.403 322.328 269.106 324.712 268.254 326.92C267.401 329.128 266.018 331.092 264.228 332.64H264.241Z" fill="#403D99"/>
<path fill-rule="evenodd" clip-rule="evenodd" d="M229.997 273.084C229.996 278.033 228.029 282.78 224.529 286.279C223.865 286.945 223.15 287.558 222.391 288.114L216.268 284.282C214.626 283.253 212.78 282.593 210.858 282.347L190.932 279.8C190.811 279.784 190.689 279.777 190.567 279.778C189.993 279.781 189.434 279.957 188.963 280.284C188.492 280.61 188.131 281.072 187.927 281.608C187.756 282.061 187.678 282.544 187.699 283.028C187.721 283.511 187.84 283.986 188.051 284.422C188.262 284.858 188.559 285.246 188.925 285.563C189.291 285.88 189.718 286.119 190.179 286.266L205.813 291.219H165.538C161.101 290.141 157.213 287.474 154.61 283.723C152.006 279.973 150.867 275.398 151.409 270.864C151.951 266.331 154.136 262.153 157.55 259.121C160.964 256.089 165.371 254.414 169.936 254.412H211.324C216.275 254.412 221.024 256.378 224.525 259.879C228.026 263.38 229.992 268.128 229.992 273.079L229.997 273.084Z" fill="#403D99"/>
<path fill-rule="evenodd" clip-rule="evenodd" d="M224.451 193.606L221.618 196.416C221.392 196.638 221.215 196.904 221.098 197.198C220.98 197.492 220.925 197.807 220.936 198.123C220.993 199.847 221.121 203.498 221.226 206.705C221.282 208.33 220.732 209.918 219.684 211.161C218.635 212.404 217.163 213.214 215.552 213.434L210.599 214.107C210.215 214.16 209.864 214.35 209.609 214.642C209.354 214.934 209.214 215.308 209.213 215.695V218.717L209.152 218.611L170.579 218.554L170.544 218.607C170.504 216.703 170.456 214.499 170.403 212.339L178.4 201.826C178.853 201.232 179.18 200.553 179.362 199.828C179.545 199.104 179.578 198.35 179.461 197.613C179.344 196.875 179.078 196.169 178.68 195.537C178.283 194.905 177.761 194.36 177.147 193.935L175.998 193.144C175.105 192.525 174.355 191.72 173.8 190.785C173.245 189.85 172.898 188.806 172.783 187.725C172.757 187.463 172.743 187.2 172.743 186.937C172.744 185.012 173.477 183.16 174.793 181.756C175.666 180.83 176.762 180.144 177.976 179.765C179.19 179.385 180.481 179.324 181.726 179.587L186.164 180.524C186.77 180.653 187.397 180.645 188 180.501C188.603 180.356 189.165 180.079 189.647 179.689C190.128 179.299 190.517 178.806 190.783 178.247C191.05 177.687 191.188 177.075 191.187 176.455V164.012C191.188 162.37 191.674 160.765 192.586 159.399C193.497 158.033 194.792 156.968 196.307 156.336L201.722 154.075C205.721 155.441 209.235 157.942 211.836 161.272C214.437 164.601 216.013 168.616 216.37 172.827C216.436 173.571 216.405 174.32 216.278 175.057C216.146 175.831 215.965 176.873 215.816 177.753C215.722 178.287 215.746 178.835 215.885 179.359C216.024 179.883 216.275 180.37 216.621 180.788L224.609 190.496C224.976 190.94 225.164 191.506 225.134 192.081C225.105 192.657 224.861 193.201 224.451 193.606Z" fill="#D89071"/>
<path fill-rule="evenodd" clip-rule="evenodd" d="M229.997 273.084C229.996 278.033 228.029 282.78 224.529 286.279C223.865 286.945 223.15 287.558 222.391 288.114L216.268 284.282C214.626 283.253 212.78 282.593 210.858 282.347L190.932 279.8C190.811 279.784 190.689 279.777 190.567 279.778C189.993 279.781 189.434 279.957 188.963 280.284C188.492 280.61 188.131 281.072 187.927 281.608C187.756 282.061 187.678 282.544 187.699 283.028C187.721 283.511 187.84 283.986 188.051 284.422C188.262 284.858 188.559 285.246 188.925 285.563C189.291 285.88 189.718 286.119 190.179 286.266L205.813 291.219H165.538C161.101 290.141 157.213 287.474 154.61 283.723C152.006 279.973 150.867 275.398 151.409 270.864C151.951 266.331 154.136 262.153 157.55 259.121C160.964 256.089 165.371 254.414 169.936 254.412H211.324C216.275 254.412 221.024 256.378 224.525 259.879C228.026 263.38 229.992 268.128 229.992 273.079L229.997 273.084Z" fill="white"/>
<path fill-rule="evenodd" clip-rule="evenodd" d="M264.241 332.64C261.503 335.01 258 336.309 254.379 336.298C250.757 336.286 247.263 334.965 244.539 332.579L227.01 317.241L218.67 309.944C215.738 307.375 212.164 305.65 208.329 304.951L164.478 296.964C163.821 296.843 163.227 296.496 162.8 295.984C162.372 295.471 162.138 294.825 162.138 294.157C162.137 293.772 162.213 293.39 162.36 293.034C162.507 292.678 162.723 292.354 162.996 292.081C163.268 291.809 163.592 291.593 163.948 291.445C164.304 291.298 164.686 291.223 165.072 291.223H205.8L190.166 286.271C189.705 286.124 189.278 285.885 188.912 285.567C188.546 285.25 188.249 284.862 188.038 284.426C187.827 283.99 187.708 283.516 187.686 283.032C187.665 282.548 187.743 282.065 187.914 281.612C188.118 281.077 188.479 280.615 188.95 280.288C189.421 279.962 189.98 279.785 190.554 279.783C190.676 279.781 190.798 279.789 190.919 279.805L210.845 282.351C212.767 282.597 214.613 283.258 216.255 284.287L222.378 288.118L228.413 291.905C229.394 292.517 230.397 293.088 231.427 293.612L261.338 308.853C263.447 309.928 265.259 311.505 266.614 313.445C267.97 315.385 268.829 317.629 269.114 319.978C269.399 322.328 269.102 324.712 268.249 326.92C267.396 329.128 266.014 331.092 264.224 332.64H264.241Z" fill="#D89071"/>
<path fill-rule="evenodd" clip-rule="evenodd" d="M212.046 223.635C211.817 224.017 196.91 248.526 189.573 248.526C182.236 248.526 167.667 223.63 167.667 223.63L170.548 218.603L170.583 218.55L209.156 218.607L209.217 218.713L212.046 223.635Z" fill="#CBCBD7"/>
<path fill-rule="evenodd" clip-rule="evenodd" d="M201.96 152.668C201.96 152.796 201.731 154.071 201.731 154.071L196.316 156.332C194.8 156.963 193.505 158.029 192.594 159.395C191.683 160.761 191.197 162.366 191.196 164.008V176.447C191.197 177.066 191.058 177.678 190.792 178.238C190.525 178.797 190.137 179.29 189.656 179.68C189.174 180.07 188.611 180.348 188.009 180.492C187.406 180.637 186.779 180.645 186.173 180.515L181.734 179.578C180.49 179.315 179.199 179.376 177.984 179.756C176.77 180.136 175.674 180.821 174.802 181.747C173.485 183.151 172.753 185.004 172.752 186.929C172.752 187.191 172.765 187.454 172.792 187.716C172.907 188.797 173.254 189.841 173.808 190.776C174.363 191.711 175.113 192.516 176.007 193.135L177.155 193.927C177.77 194.351 178.291 194.896 178.689 195.528C179.087 196.16 179.352 196.867 179.47 197.604C179.587 198.342 179.553 199.095 179.371 199.82C179.189 200.544 178.861 201.224 178.409 201.818L170.412 212.33L170.39 212.357C170.302 211.091 169.716 209.912 168.761 209.077C167.805 208.242 166.558 207.819 165.292 207.901C164.551 208.031 163.801 208.098 163.049 208.103C162.312 208.043 161.594 207.839 160.937 207.502C160.279 207.164 159.695 206.701 159.216 206.138C158.738 205.574 158.375 204.922 158.149 204.219C157.923 203.515 157.837 202.774 157.898 202.038C157.919 201.771 157.959 201.507 158.016 201.246C158.025 201.214 158.026 201.182 158.02 201.15C158.014 201.118 158.001 201.087 157.981 201.061C157.962 201.035 157.937 201.013 157.908 200.997C157.879 200.981 157.847 200.971 157.814 200.969H157.788C156.838 200.892 155.923 200.576 155.129 200.049C154.335 199.522 153.687 198.802 153.248 197.957C152.808 197.111 152.59 196.168 152.615 195.215C152.64 194.263 152.906 193.332 153.389 192.51H153.248C152.295 192.433 151.378 192.114 150.583 191.583C149.787 191.052 149.14 190.328 148.703 189.478C148.265 188.628 148.051 187.68 148.082 186.725C148.112 185.769 148.385 184.837 148.876 184.017C149.158 183.545 149.285 182.996 149.24 182.448C149.195 181.9 148.98 181.38 148.625 180.96C147.708 179.876 147.233 178.487 147.296 177.069C147.358 175.651 147.954 174.308 148.964 173.311C149.429 172.858 149.741 172.271 149.855 171.632C149.97 170.993 149.881 170.334 149.602 169.748C149.174 168.855 148.992 167.866 149.074 166.88C149.188 165.474 149.826 164.162 150.862 163.205C151.897 162.247 153.254 161.712 154.665 161.707C154.247 160.676 154.144 159.544 154.37 158.454C154.595 157.365 155.139 156.367 155.932 155.586C156.725 154.806 157.731 154.278 158.824 154.069C159.917 153.86 161.047 153.98 162.072 154.414C162.004 153.599 162.114 152.779 162.394 152.011C162.674 151.242 163.118 150.544 163.695 149.965C164.272 149.385 164.969 148.938 165.736 148.654C166.503 148.371 167.323 148.257 168.138 148.322C168.714 148.367 169.279 148.502 169.814 148.722C170.333 148.933 170.906 148.972 171.449 148.836C171.992 148.699 172.478 148.393 172.836 147.961C173.395 147.275 174.108 146.731 174.917 146.372C175.725 146.014 176.608 145.851 177.491 145.897C178.375 145.943 179.235 146.197 180.002 146.639C180.769 147.08 181.422 147.696 181.906 148.437C182.345 147.766 182.921 147.197 183.597 146.768C184.274 146.338 185.034 146.058 185.827 145.945C186.62 145.833 187.428 145.891 188.197 146.116C188.966 146.341 189.678 146.727 190.285 147.249C190.704 147.618 191.232 147.839 191.788 147.879C192.344 147.918 192.898 147.774 193.365 147.469C194.248 146.909 195.271 146.607 196.317 146.596C197.363 146.586 198.391 146.867 199.286 147.408C200.181 147.95 200.908 148.73 201.384 149.661C201.86 150.593 202.067 151.639 201.982 152.681L201.96 152.668Z" fill="#262627"/>
</g>
<defs>
<clipPath id="clip0_2411_4605">
<rect width="173.988" height="74.0634" fill="white" transform="translate(0 519.712)"/>
</clipPath>
<clipPath id="clip1_2411_4605">
<rect width="254.414" height="593.088" fill="white" transform="translate(33.4307 0.679199)"/>
</clipPath>
</defs>
</svg>
